<svg width="618" height="599" viewBox="0 0 618 599" fill="none" xmlns="http://www.w3.org/2000/svg">
<g clip-path="url(#clip0_854_31)">
<path d="M316 83.9999L497 311.212L470.876 344.006L316 149.587L161.124 344.006L135 311.212L316 83.9999Z" fill="black"/>
<path d="M334.659 515H297.34V116.793H334.659V515Z" fill="black"/>
<path d="M309 599C138.141 599 0 465.106 0 299.5C0 133.894 138.141 0 309 0C479.859 0 618 133.894 618 299.5C618 465.106 479.859 599 309 599ZM309 35.2353C158.135 35.2353 36.3529 153.274 36.3529 299.5C36.3529 445.726 158.135 563.765 309 563.765C459.865 563.765 581.647 445.726 581.647 299.5C581.647 153.274 459.865 35.2353 309 35.2353Z" fill="black"/>
</g>
<defs>
<clipPath id="clip0_854_31">
<rect width="618" height="599" fill="white"/>
</clipPath>
</defs>
</svg>
