<svg width="191" height="211" viewBox="0 0 191 211" fill="none" xmlns="http://www.w3.org/2000/svg">
<g clip-path="url(#clip0_852_28)">
<rect x="51" y="53" width="88" height="105" fill="black" fill-opacity="0.4"/>
<path fill-rule="evenodd" clip-rule="evenodd" d="M31.8333 14.0667C21.2847 14.0667 12.7333 23.5134 12.7333 35.1667V70.3333H0V35.1667C0 15.7447 14.2523 0 31.8333 0H63.6667V14.0667H31.8333ZM159.167 14.0667H127.333V0H159.167C176.748 0 191 15.7447 191 35.1667V70.3333H178.267V35.1667C178.267 23.5134 169.715 14.0667 159.167 14.0667ZM165.533 112.533H25.4667V98.4667H165.533V112.533ZM0 175.833V140.667H12.7333V175.833C12.7333 187.486 21.2847 196.933 31.8333 196.933H63.6667V211H31.8333C14.2523 211 0 195.255 0 175.833ZM178.267 175.833V140.667H191V175.833C191 195.255 176.748 211 159.167 211H127.333V196.933H159.167C169.715 196.933 178.267 187.486 178.267 175.833Z" fill="black"/>
</g>
<defs>
<clipPath id="clip0_852_28">
<rect width="191" height="211" fill="white"/>
</clipPath>
</defs>
</svg>
